<svg xmlns="http://www.w3.org/2000/svg" width="48" height="48" viewBox="0 0 48 48">
<!-- Official legacy mark: https://github.com/langchain-ai/langgraphjs/blob/main/docs/docs/static/wordmark_light.svg -->
<rect width="48" height="48" rx="11" fill="#242938"/>
<g transform="translate(1.75 12) scale(0.09)"><path fill-rule="evenodd" clip-rule="evenodd" d="M124.272 0.695801H363.303C431.414 0.695801 486.823 56.299 486.823 124.644C486.823 192.988 431.414 248.592 363.303 248.592H124.272C56.1612 248.592 0.75293 192.988 0.75293 124.644C0.75293 56.299 56.1612 0.695801 124.272 0.695801ZM234.017 192.833C237.018 195.989 241.46 195.833 245.395 195.015L245.434 195.034C247.261 193.548 244.664 191.667 242.185 189.87C240.698 188.792 239.253 187.745 238.829 186.832C240.202 185.158 236.142 181.358 232.982 178.399C231.655 177.157 230.487 176.063 229.945 175.337C227.697 172.889 226.793 169.801 225.883 166.694C225.28 164.632 224.675 162.563 223.672 160.667C217.496 146.328 210.424 132.105 200.507 119.968C194.134 111.901 186.861 104.676 179.585 97.4494C174.894 92.7906 170.203 88.1307 165.75 83.2433C161.169 78.5137 158.412 72.6873 155.65 66.8513C153.338 61.9655 151.023 57.073 147.632 52.8116C137.364 37.6152 104.946 33.4654 100.192 54.9352C100.211 55.5976 99.9969 56.0262 99.4125 56.4548C96.7823 58.3836 94.4444 60.5656 92.4767 63.2153C87.6645 69.9367 86.9241 81.334 92.9247 87.3736C92.9334 87.2441 92.9419 87.1149 92.9504 86.986C93.1509 83.9364 93.3384 81.0858 95.7497 78.8987C100.387 82.8926 107.42 84.3148 112.797 81.334C119.28 90.6339 121.345 101.876 123.418 113.157C125.144 122.554 126.875 131.978 131.169 140.327C131.258 140.475 131.346 140.622 131.435 140.77C133.959 144.973 136.524 149.243 139.761 152.913C140.937 154.735 143.351 156.703 145.761 158.667C148.941 161.259 152.114 163.844 152.424 166.083C152.439 167.057 152.434 168.044 152.43 169.037C152.405 174.916 152.379 181.005 156.146 185.838C158.23 190.066 153.126 194.313 149.015 193.787C146.761 194.1 144.299 193.506 141.854 192.916C138.508 192.109 135.195 191.31 132.494 192.852C131.736 193.672 130.648 193.701 129.554 193.73C128.257 193.764 126.953 193.798 126.181 195.151C126.023 195.553 125.653 196.007 125.268 196.479C124.422 197.516 123.506 198.639 124.603 199.496C124.702 199.421 124.8 199.346 124.897 199.272C126.56 198.002 128.145 196.793 130.39 197.547C130.091 199.206 131.162 199.65 132.233 200.094C132.419 200.172 132.606 200.249 132.786 200.333C132.775 200.718 132.699 201.107 132.623 201.492C132.443 202.413 132.267 203.316 132.981 204.113C133.32 203.768 133.62 203.381 133.92 202.993C134.655 202.043 135.394 201.088 136.722 200.742C139.642 204.643 142.584 203.023 146.276 200.99C150.44 198.697 155.557 195.88 162.672 199.866C159.945 199.729 157.509 200.061 155.678 202.321C155.23 202.827 154.84 203.412 155.639 204.074C159.849 201.347 161.6 202.327 163.249 203.249C164.439 203.915 165.575 204.551 167.543 203.743C168.008 203.5 168.473 203.249 168.939 202.998C172.1 201.293 175.305 199.564 179.057 200.158C176.254 200.966 175.257 202.743 174.169 204.682C173.63 205.641 173.07 206.64 172.258 207.581C171.829 208.009 171.634 208.516 172.121 209.237C177.99 208.749 180.208 207.261 183.204 205.25C184.633 204.291 186.24 203.213 188.506 202.067C191.011 200.525 193.515 201.512 195.942 202.467C198.575 203.504 201.117 204.505 203.469 202.204C204.212 201.504 205.143 201.495 206.071 201.486C206.409 201.483 206.746 201.48 207.073 201.444C206.341 197.523 202.212 197.569 198.021 197.616C193.174 197.67 188.243 197.725 188.389 191.644C192.893 188.568 192.935 183.229 192.974 178.184C192.984 176.965 192.993 175.764 193.065 174.616C196.378 176.464 199.882 177.907 203.364 179.342C206.64 180.692 209.897 182.033 212.957 183.695C216.152 188.839 221.139 195.658 227.783 195.209C227.958 194.683 228.114 194.235 228.309 193.709C228.692 193.776 229.096 193.879 229.508 193.983C231.251 194.424 233.119 194.898 234.017 192.833ZM364.23 134.383C368.077 138.22 373.294 140.376 378.734 140.376C384.175 140.376 389.392 138.22 393.239 134.383C397.086 130.545 399.247 125.34 399.247 119.913C399.247 114.486 397.086 109.281 393.239 105.444C389.392 101.606 384.175 99.4505 378.734 99.4505C376.187 99.4505 373.689 99.9232 371.357 100.82L359.6 83.6586L351.406 89.2721L363.224 106.523C360.009 110.229 358.222 114.979 358.222 119.913C358.222 125.34 360.383 130.545 364.23 134.383ZM327.422 78.8062C330.3 80.2284 333.473 80.9565 336.685 80.9317C341.067 80.898 345.323 79.4649 348.83 76.8425C352.336 74.2201 354.909 70.5463 356.17 66.3593C357.432 62.1724 357.316 57.6925 355.839 53.576C354.363 49.4596 351.604 45.9232 347.966 43.4848C345.3 41.6978 342.251 40.5603 339.064 40.1639C335.876 39.7676 332.64 40.1234 329.616 41.2029C326.592 42.2823 323.864 44.0551 321.652 46.3786C319.441 48.702 317.807 51.5112 316.882 54.5798C315.958 57.6484 315.768 60.8907 316.33 64.0456C316.891 67.2005 318.187 70.1798 320.114 72.7436C322.04 75.3074 324.544 77.384 327.422 78.8062ZM327.422 197.63C330.3 199.052 333.473 199.78 336.685 199.756C341.067 199.722 345.323 198.289 348.83 195.666C352.336 193.044 354.909 189.37 356.17 185.183C357.432 180.996 357.316 176.516 355.839 172.4C354.363 168.284 351.604 164.747 347.966 162.309C345.3 160.522 342.251 159.384 339.064 158.988C335.876 158.591 332.64 158.947 329.616 160.027C326.592 161.106 323.864 162.879 321.652 165.203C319.441 167.526 317.807 170.335 316.882 173.404C315.958 176.472 315.768 179.715 316.33 182.87C316.891 186.024 318.187 189.004 320.114 191.568C322.04 194.131 324.544 196.208 327.422 197.63ZM346.279 125.001V114.828H314.885C314.095 111.743 312.589 108.886 310.488 106.485L322.299 88.9872L313.709 83.29L301.898 100.788C299.733 100.006 297.451 99.5935 295.148 99.5675C289.724 99.5675 284.522 101.711 280.686 105.527C276.851 109.343 274.696 114.518 274.696 119.914C274.696 125.311 276.851 130.486 280.686 134.302C284.522 138.117 289.724 140.261 295.148 140.261C297.451 140.235 299.733 139.822 301.898 139.04L313.709 156.538L322.197 150.841L310.488 133.343C312.589 130.943 314.095 128.086 314.885 125.001H346.279Z" fill="#F8F7FF"/></g>
</svg>
